# Blender v2.92.0 OBJ File: ''
# www.blender.org
mtllib shelfandtable.mtl
o Shelf2_Shelf2.001
v 1.047596 -0.000001 0.175000
v 1.047596 -0.000001 0.200000
v 0.747596 -0.000001 0.200000
v 0.747596 -0.000001 0.175000
v 1.047596 -0.000001 -0.200000
v 1.047596 -0.000001 -0.175000
v 0.747596 -0.000001 -0.175000
v 0.747596 -0.000001 -0.200000
v -0.092404 -0.040001 0.500000
v -0.092404 -0.000001 0.500000
v -0.152404 -0.000001 0.500000
v -0.152404 -0.040001 0.500000
v -0.152404 -0.040001 -0.450000
v -0.152404 -0.000001 -0.450000
v -0.152404 -0.000001 -0.500000
v -0.152404 -0.040001 -0.500000
v 0.987596 -0.040001 -0.500000
v 0.987596 -0.000001 -0.500000
v 1.047596 -0.000001 -0.500000
v 1.047596 -0.040001 -0.500000
v 1.047596 -0.040001 0.450000
v 1.047596 -0.000001 0.450000
v 1.047596 -0.000001 0.500000
v 1.047596 -0.040001 0.500000
v -0.092404 -0.040001 -0.500000
v -0.092404 -0.850001 -0.500000
v -0.152404 -0.850001 -0.500000
v 0.987596 -0.000001 0.450000
v 0.987596 -0.000001 0.500000
v 0.987596 -0.000001 -0.450000
v 1.047596 -0.000001 -0.450000
v 0.987596 -0.040001 0.450000
v 0.987596 -0.040001 -0.450000
v 1.047596 -0.040001 -0.450000
v -0.152404 -0.040001 0.450000
v -0.152404 -0.000001 0.450000
v 1.047596 -0.850001 -0.500000
v 0.987596 -0.850001 -0.500000
v -0.092404 -0.000001 0.450000
v -0.092404 -0.000001 -0.450000
v 0.987596 -0.850001 -0.450000
v -0.092404 -0.040001 -0.450000
v -0.092404 -0.040001 0.450000
v -0.092404 -0.000001 -0.500000
v -0.152404 -0.850001 0.500000
v -0.092404 -0.850001 0.500000
v 0.987596 -0.040001 0.500000
v 1.047596 -0.850001 -0.450000
v 0.987596 -0.850001 0.500000
v 0.987596 -0.850001 0.450000
v 1.047596 -0.850001 0.450000
v 1.047596 -0.850001 0.500000
v -0.152404 -0.850001 0.450000
v -0.092404 -0.850001 0.450000
v -0.152404 -0.850001 -0.450000
v -0.092404 -0.850001 -0.450000
vt 0.185629 0.886227
vt 0.185629 0.894212
vt 0.281437 0.894212
vt 0.281437 0.886227
vt 0.185629 0.766467
vt 0.185629 0.774451
vt 0.281437 0.774451
vt 0.281437 0.766467
vt 0.012774 0.747305
vt 0.000000 0.747305
vt 0.000000 0.766467
vt 0.012774 0.766467
vt 0.555689 0.686627
vt 0.542914 0.686627
vt 0.542914 0.702595
vt 0.555689 0.702595
vt 0.284232 0.747305
vt 0.271457 0.747305
vt 0.271457 0.766467
vt 0.284232 0.766467
vt 0.651497 0.303393
vt 0.638722 0.303393
vt 0.638722 0.319361
vt 0.651497 0.319361
vt 0.284232 0.383234
vt 0.284232 0.402395
vt 0.542914 0.402395
vt 0.542914 0.383234
vt 0.303393 0.019162
vt 0.319361 0.019162
vt 0.319361 0.000000
vt 0.303393 0.000000
vt 0.000000 0.019162
vt 0.015968 0.019162
vt 0.015968 0.000000
vt 0.000000 0.000000
vt 0.622754 0.364072
vt 0.335329 0.364072
vt 0.335329 0.383234
vt 0.622754 0.383234
vt 0.651497 0.000000
vt 0.638722 0.000000
vt 0.638722 0.015968
vt 0.651497 0.015968
vt 0.555689 0.399202
vt 0.542914 0.399202
vt 0.555689 0.383234
vt 0.542914 0.383234
vt 0.542914 0.766467
vt 0.542914 0.747305
vt 0.015968 0.383234
vt 0.303393 0.383234
vt 0.303393 0.364072
vt 0.015968 0.364072
vt 0.948503 0.641916
vt 0.964471 0.641916
vt 0.964471 0.383234
vt 0.948503 0.383234
vt 0.622754 0.000000
vt 0.335329 0.000000
vt 0.335329 0.019162
vt 0.622754 0.019162
vt 0.000000 0.383234
vt 0.000000 0.364072
vt 0.319361 0.383234
vt 0.319361 0.364072
vt 0.271457 0.766467
vt 0.271457 0.747305
vt 0.271457 0.383234
vt 0.271457 0.402395
vt 0.012774 0.402395
vt 0.000000 0.402395
vt 0.012774 0.383234
vt 0.000000 0.383234
vt 0.638723 0.019162
vt 0.638723 0.364072
vt 0.319361 0.019162
vt 0.319361 0.364072
vt 0.638722 0.357685
vt 0.654691 0.357685
vt 0.654691 0.338523
vt 0.638722 0.338523
vt 0.638722 0.338523
vt 0.654691 0.338523
vt 0.654691 0.319361
vt 0.638722 0.319361
vt 0.670659 0.338523
vt 0.654691 0.338523
vt 0.654691 0.357684
vt 0.670659 0.357684
vt 0.654691 0.357685
vt 0.638722 0.357685
vt 0.638722 0.376846
vt 0.654691 0.376846
vt 0.964471 0.900599
vt 0.980439 0.900599
vt 0.980439 0.641916
vt 0.964471 0.641916
vt 0.271457 0.402395
vt 0.271457 0.383234
vt 0.910180 0.319361
vt 0.910180 0.303393
vt 0.948503 0.900599
vt 0.964471 0.900599
vt 0.964471 0.641916
vt 0.948503 0.641916
vt 0.910180 0.900599
vt 0.929341 0.900599
vt 0.929341 0.641916
vt 0.910180 0.641916
vt 0.910180 0.015968
vt 0.910180 0.000000
vt 0.910180 0.641916
vt 0.929341 0.641916
vt 0.929341 0.383234
vt 0.910180 0.383234
vt 0.929341 0.641916
vt 0.948503 0.641916
vt 0.948503 0.383233
vt 0.929341 0.383233
vt 0.814371 0.399202
vt 0.814371 0.383234
vt 0.964471 0.641916
vt 0.980439 0.641916
vt 0.980439 0.383234
vt 0.964471 0.383234
vt 0.929341 0.900599
vt 0.948503 0.900599
vt 0.948503 0.641916
vt 0.929341 0.641916
vt 0.814371 0.702595
vt 0.814371 0.686627
vn 0.0000 -1.0000 -0.0000
vn 0.0000 -0.0000 1.0000
vn -1.0000 0.0000 0.0000
vn 0.0000 0.0000 -1.0000
vn 1.0000 -0.0000 0.0000
vn 0.0000 1.0000 0.0000
usemtl Material.001
s 1
f 1/1/1 2/2/1 3/3/1
f 1/1/1 3/3/1 4/4/1
f 5/5/1 6/6/1 7/7/1
f 5/5/1 7/7/1 8/8/1
f 6/6/1 1/1/1 4/4/1
f 6/6/1 4/4/1 7/7/1
f 9/9/2 10/10/2 11/11/2
f 9/9/2 11/11/2 12/12/2
f 13/13/3 14/14/3 15/15/3
f 13/13/3 15/15/3 16/16/3
f 17/17/4 18/18/4 19/19/4
f 17/17/4 19/19/4 20/20/4
f 21/21/5 22/22/5 23/23/5
f 21/21/5 23/23/5 24/24/5
f 16/25/4 25/26/4 26/27/4
f 16/25/4 26/27/4 27/28/4
f 28/29/6 29/30/6 23/31/6
f 28/29/6 23/31/6 22/32/6
f 18/33/6 30/34/6 31/35/6
f 18/33/6 31/35/6 19/36/6
f 32/37/1 33/38/1 34/39/1
f 32/37/1 34/39/1 21/40/1
f 20/41/5 19/42/5 31/43/5
f 20/41/5 31/43/5 34/44/5
f 35/45/3 36/46/3 14/14/3
f 35/45/3 14/14/3 13/13/3
f 12/47/3 11/48/3 36/46/3
f 12/47/3 36/46/3 35/45/3
f 17/17/4 20/20/4 37/49/4
f 17/17/4 37/49/4 38/50/4
f 30/34/6 28/29/6 22/32/6
f 30/34/6 22/32/6 31/35/6
f 34/44/5 31/43/5 22/22/5
f 34/44/5 22/22/5 21/21/5
f 14/51/6 36/52/6 39/53/6
f 14/51/6 39/53/6 40/54/6
f 33/55/3 17/56/3 38/57/3
f 33/55/3 38/57/3 41/58/3
f 35/59/1 13/60/1 42/61/1
f 35/59/1 42/61/1 43/62/1
f 15/63/6 14/51/6 40/54/6
f 15/63/6 40/54/6 44/64/6
f 36/52/6 11/65/6 10/66/6
f 36/52/6 10/66/6 39/53/6
f 9/9/2 12/12/2 45/67/2
f 9/9/2 45/67/2 46/68/2
f 16/25/4 15/69/4 44/70/4
f 16/25/4 44/70/4 25/26/4
f 47/71/2 29/72/2 10/10/2
f 47/71/2 10/10/2 9/9/2
f 24/73/2 23/74/2 29/72/2
f 24/73/2 29/72/2 47/71/2
f 40/54/6 39/53/6 28/29/6
f 40/54/6 28/29/6 30/34/6
f 9/75/1 43/62/1 32/37/1
f 9/75/1 32/37/1 47/76/1
f 43/62/1 42/61/1 33/38/1
f 43/62/1 33/38/1 32/37/1
f 44/64/6 40/54/6 30/34/6
f 44/64/6 30/34/6 18/33/6
f 39/53/6 10/66/6 29/30/6
f 39/53/6 29/30/6 28/29/6
f 42/61/1 25/77/1 17/78/1
f 42/61/1 17/78/1 33/38/1
f 25/26/4 44/70/4 18/18/4
f 25/26/4 18/18/4 17/17/4
f 41/79/1 38/80/1 37/81/1
f 41/79/1 37/81/1 48/82/1
f 49/83/1 50/84/1 51/85/1
f 49/83/1 51/85/1 52/86/1
f 45/87/1 53/88/1 54/89/1
f 45/87/1 54/89/1 46/90/1
f 55/91/1 27/92/1 26/93/1
f 55/91/1 26/93/1 56/94/1
f 43/95/5 9/96/5 46/97/5
f 43/95/5 46/97/5 54/98/5
f 24/73/2 47/71/2 49/99/2
f 24/73/2 49/99/2 52/100/2
f 21/21/5 24/24/5 52/101/5
f 21/21/5 52/101/5 51/102/5
f 47/103/3 32/104/3 50/105/3
f 47/103/3 50/105/3 49/106/3
f 34/107/2 33/108/2 41/109/2
f 34/107/2 41/109/2 48/110/2
f 20/41/5 34/44/5 48/111/5
f 20/41/5 48/111/5 37/112/5
f 32/113/4 21/114/4 51/115/4
f 32/113/4 51/115/4 50/116/4
f 42/117/2 13/118/2 55/119/2
f 42/117/2 55/119/2 56/120/2
f 12/47/3 35/45/3 53/121/3
f 12/47/3 53/121/3 45/122/3
f 25/123/5 42/124/5 56/125/5
f 25/123/5 56/125/5 26/126/5
f 35/127/4 43/128/4 54/129/4
f 35/127/4 54/129/4 53/130/4
f 13/13/3 16/16/3 27/131/3
f 13/13/3 27/131/3 55/132/3
